<svg width="128" height="128" viewBox="0 0 128 128" fill="none" xmlns="http://www.w3.org/2000/svg">
  <!-- Gradient Background -->
  <defs>
    <linearGradient id="bg-gradient" x1="0%" y1="0%" x2="100%" y2="100%">
      <stop offset="0%" stop-color="#4338ca" /> <!-- Indigo 700 -->
      <stop offset="100%" stop-color="#7e22ce" /> <!-- Purple 700 -->
    </linearGradient>
  </defs>
  
  <!-- Main Circle -->
  <circle cx="64" cy="64" r="60" fill="url(#bg-gradient)" />
  
  <!-- QR Code Elements -->
  <g fill="white">
    <!-- QR Position Markers -->
    <rect x="30" y="30" width="22" height="22" rx="4" />
    <rect x="36" y="36" width="10" height="10" rx="2" fill="url(#bg-gradient)" />
    
    <rect x="76" y="30" width="22" height="22" rx="4" />
    <rect x="82" y="36" width="10" height="10" rx="2" fill="url(#bg-gradient)" />
    
    <rect x="30" y="76" width="22" height="22" rx="4" />
    <rect x="36" y="82" width="10" height="10" rx="2" fill="url(#bg-gradient)" />
    
    <!-- QR Code Data Elements - Simplified Pattern -->
    <rect x="58" y="30" width="12" height="6" rx="2" />
    <rect x="58" y="42" width="6" height="12" rx="2" />
    <rect x="76" y="58" width="12" height="6" rx="2" />
    <rect x="52" y="52" width="24" height="24" rx="4" />
    <rect x="58" y="58" width="12" height="12" rx="2" fill="url(#bg-gradient)" />
    <rect x="30" y="58" width="12" height="6" rx="2" />
    <rect x="58" y="92" width="6" height="6" rx="2" />
    <rect x="76" y="76" width="6" height="6" rx="2" />
    <rect x="92" y="92" width="6" height="6" rx="2" />
  </g>
</svg> 