<svg width="128" height="128" viewBox="0 0 128 128" fill="none" xmlns="http://www.w3.org/2000/svg">
  <!-- Gradient Background -->
  <defs>
    <linearGradient id="bg-gradient" x1="0%" y1="0%" x2="100%" y2="100%">
      <stop offset="0%" stop-color="#4338ca" /> <!-- Indigo 700 -->
      <stop offset="100%" stop-color="#7e22ce" /> <!-- Purple 700 -->
    </linearGradient>
    <linearGradient id="arrow-gradient" x1="0%" y1="0%" x2="100%" y2="100%">
      <stop offset="0%" stop-color="#ffffff" />
      <stop offset="100%" stop-color="#f3f4f6" /> <!-- Gray 100 -->
    </linearGradient>
  </defs>
  
  <!-- Main Circle -->
  <circle cx="64" cy="64" r="60" fill="url(#bg-gradient)" />
  
  <!-- QR Code Elements -->
  <g fill="white" opacity="0.85">
    <!-- QR Position Markers -->
    <rect x="30" y="30" width="22" height="22" rx="5" />
    <rect x="36" y="36" width="10" height="10" rx="2" fill="url(#bg-gradient)" />
    
    <rect x="76" y="30" width="22" height="22" rx="5" />
    <rect x="82" y="36" width="10" height="10" rx="2" fill="url(#bg-gradient)" />
    
    <rect x="30" y="76" width="22" height="22" rx="5" />
    <rect x="36" y="82" width="10" height="10" rx="2" fill="url(#bg-gradient)" />
    
    <!-- QR Code Dots -->
    <rect x="61" y="30" width="6" height="6" rx="1.5" />
    <rect x="61" y="42" width="6" height="6" rx="1.5" />
    <rect x="61" y="54" width="6" height="6" rx="1.5" />
    
    <rect x="76" y="61" width="6" height="6" rx="1.5" />
    <rect x="88" y="61" width="6" height="6" rx="1.5" />
    
    <rect x="30" y="61" width="6" height="6" rx="1.5" />
    <rect x="42" y="61" width="6" height="6" rx="1.5" />
    
    <rect x="61" y="80" width="6" height="6" rx="1.5" />
    <rect x="61" y="92" width="6" height="6" rx="1.5" />
    
    <rect x="80" y="80" width="6" height="6" rx="1.5" />
    <rect x="92" y="92" width="6" height="6" rx="1.5" />
  </g>
  
  <!-- Arrow Indicating Redirection -->
  <g>
    <path d="M90 48 L112 64 L90 80" stroke="url(#arrow-gradient)" stroke-width="8" stroke-linecap="round" stroke-linejoin="round" fill="none" />
    <circle cx="64" cy="64" r="18" fill="white" opacity="0.9" />
    <path d="M58 50 L64 64 L80 64" stroke="url(#bg-gradient)" stroke-width="6" stroke-linecap="round" stroke-linejoin="round" fill="none" />
  </g>
</svg> 