<svg width="200" height="200" viewBox="0 0 200 200" fill="none" xmlns="http://www.w3.org/2000/svg">
  <rect width="200" height="200" fill="white"/>
  <!-- Outer frame -->
  <rect x="20" y="20" width="50" height="50" fill="black"/>
  <rect x="130" y="20" width="50" height="50" fill="black"/>
  <rect x="20" y="130" width="50" height="50" fill="black"/>
  
  <!-- Position detection patterns -->
  <rect x="30" y="30" width="30" height="30" fill="white"/>
  <rect x="140" y="30" width="30" height="30" fill="white"/>
  <rect x="30" y="140" width="30" height="30" fill="white"/>
  
  <!-- Inner position markers (as circles) -->
  <circle cx="45" cy="45" r="5" fill="black"/>
  <circle cx="155" cy="45" r="5" fill="black"/>
  <circle cx="45" cy="155" r="5" fill="black"/>
  
  <!-- Data pattern simulation (as squares) -->
  <rect x="90" y="20" width="10" height="10" fill="black"/>
  <rect x="110" y="30" width="10" height="10" fill="black"/>
  <rect x="80" y="40" width="10" height="10" fill="black"/>
  <rect x="100" y="50" width="10" height="10" fill="black"/>
  <rect x="70" y="70" width="10" height="10" fill="black"/>
  <rect x="120" y="80" width="10" height="10" fill="black"/>
  <rect x="90" y="90" width="10" height="10" fill="black"/>
  <rect x="110" y="100" width="10" height="10" fill="black"/>
  <rect x="80" y="110" width="10" height="10" fill="black"/>
  <rect x="40" y="90" width="10" height="10" fill="black"/>
  <rect x="20" y="100" width="10" height="10" fill="black"/>
  <rect x="90" y="120" width="10" height="10" fill="black"/>
  <rect x="140" y="110" width="10" height="10" fill="black"/>
  <rect x="130" y="140" width="10" height="10" fill="black"/>
  <rect x="100" y="170" width="10" height="10" fill="black"/>
  <rect x="90" y="160" width="10" height="10" fill="black"/>
  <rect x="160" y="90" width="10" height="10" fill="black"/>
</svg> 