<svg width="200" height="200" viewBox="0 0 200 200" fill="none" xmlns="http://www.w3.org/2000/svg">
  <rect width="200" height="200" fill="white"/>
  <!-- Outer frame (rounded) -->
  <rect x="20" y="20" width="50" height="50" rx="8" ry="8" fill="black"/>
  <rect x="130" y="20" width="50" height="50" rx="8" ry="8" fill="black"/>
  <rect x="20" y="130" width="50" height="50" rx="8" ry="8" fill="black"/>
  
  <!-- Position detection patterns (rounded) -->
  <rect x="30" y="30" width="30" height="30" rx="4" ry="4" fill="white"/>
  <rect x="140" y="30" width="30" height="30" rx="4" ry="4" fill="white"/>
  <rect x="30" y="140" width="30" height="30" rx="4" ry="4" fill="white"/>
  
  <!-- Inner position markers (as circles) -->
  <circle cx="45" cy="45" r="5" fill="black"/>
  <circle cx="155" cy="45" r="5" fill="black"/>
  <circle cx="45" cy="155" r="5" fill="black"/>
  
  <!-- Data pattern simulation (as circles) -->
  <circle cx="95" cy="25" r="5" fill="black"/>
  <circle cx="115" cy="35" r="5" fill="black"/>
  <circle cx="85" cy="45" r="5" fill="black"/>
  <circle cx="105" cy="55" r="5" fill="black"/>
  <circle cx="75" cy="75" r="5" fill="black"/>
  <circle cx="125" cy="85" r="5" fill="black"/>
  <circle cx="95" cy="95" r="5" fill="black"/>
  <circle cx="115" cy="105" r="5" fill="black"/>
  <circle cx="85" cy="115" r="5" fill="black"/>
  <circle cx="45" cy="95" r="5" fill="black"/>
  <circle cx="25" cy="105" r="5" fill="black"/>
  <circle cx="95" cy="125" r="5" fill="black"/>
  <circle cx="145" cy="115" r="5" fill="black"/>
  <circle cx="135" cy="145" r="5" fill="black"/>
  <circle cx="105" cy="175" r="5" fill="black"/>
  <circle cx="95" cy="165" r="5" fill="black"/>
  <circle cx="165" cy="95" r="5" fill="black"/>
</svg> 